<svg id="visual" viewBox="0 0 900 600" width="900" height="600" xmlns="http://www.w3.org/2000/svg" xmlns:xlink="http://www.w3.org/1999/xlink" version="1.1"><rect x="0" y="0" width="900" height="600" fill="#6600FF"></rect><defs><linearGradient id="grad1_0" x1="33.3%" y1="0%" x2="100%" y2="100%"><stop offset="20%" stop-color="#6600ff" stop-opacity="1"></stop><stop offset="80%" stop-color="#6600ff" stop-opacity="1"></stop></linearGradient></defs><defs><linearGradient id="grad2_0" x1="0%" y1="0%" x2="66.7%" y2="100%"><stop offset="20%" stop-color="#6600ff" stop-opacity="1"></stop><stop offset="80%" stop-color="#6600ff" stop-opacity="1"></stop></linearGradient></defs><g transform="translate(900, 0)"><path d="M0 486.7C-48.2 447.3 -96.4 407.8 -162.3 391.7C-228.1 375.7 -311.5 383.1 -344.2 344.2C-376.9 305.3 -358.9 220.1 -374.2 155C-389.5 89.9 -438.1 45 -486.7 0L0 0Z" fill="#282828"></path></g><g transform="translate(0, 600)"><path d="M0 -486.7C58.7 -472.1 117.5 -457.5 181.4 -437.9C245.3 -418.4 314.4 -393.9 344.2 -344.2C373.9 -294.5 364.4 -219.6 381.6 -158C398.8 -96.5 442.8 -48.2 486.7 0L0 0Z" fill="#282828"></path></g></svg>