<svg id="visual" viewBox="0 0 900 600" width="900" height="600" xmlns="http://www.w3.org/2000/svg" xmlns:xlink="http://www.w3.org/1999/xlink" version="1.1"><path d="M0 73L13.7 77C27.3 81 54.7 89 82 93C109.3 97 136.7 97 163.8 88C191 79 218 61 245.2 59C272.3 57 299.7 71 327 71C354.3 71 381.7 57 409 49C436.3 41 463.7 39 491 47C518.3 55 545.7 73 573 80C600.3 87 627.7 83 654.8 74C682 65 709 51 736.2 52C763.3 53 790.7 69 818 73C845.3 77 872.7 69 886.3 65L900 61L900 0L886.3 0C872.7 0 845.3 0 818 0C790.7 0 763.3 0 736.2 0C709 0 682 0 654.8 0C627.7 0 600.3 0 573 0C545.7 0 518.3 0 491 0C463.7 0 436.3 0 409 0C381.7 0 354.3 0 327 0C299.7 0 272.3 0 245.2 0C218 0 191 0 163.8 0C136.7 0 109.3 0 82 0C54.7 0 27.3 0 13.7 0L0 0Z" fill="#a067ff"></path><path d="M0 151L13.7 157C27.3 163 54.7 175 82 177C109.3 179 136.7 171 163.8 162C191 153 218 143 245.2 150C272.3 157 299.7 181 327 174C354.3 167 381.7 129 409 113C436.3 97 463.7 103 491 114C518.3 125 545.7 141 573 153C600.3 165 627.7 173 654.8 175C682 177 709 173 736.2 177C763.3 181 790.7 193 818 183C845.3 173 872.7 141 886.3 125L900 109L900 59L886.3 63C872.7 67 845.3 75 818 71C790.7 67 763.3 51 736.2 50C709 49 682 63 654.8 72C627.7 81 600.3 85 573 78C545.7 71 518.3 53 491 45C463.7 37 436.3 39 409 47C381.7 55 354.3 69 327 69C299.7 69 272.3 55 245.2 57C218 59 191 77 163.8 86C136.7 95 109.3 95 82 91C54.7 87 27.3 79 13.7 75L0 71Z" fill="#8642ff"></path><path d="M0 283L13.7 282C27.3 281 54.7 279 82 294C109.3 309 136.7 341 163.8 336C191 331 218 289 245.2 277C272.3 265 299.7 283 327 294C354.3 305 381.7 309 409 302C436.3 295 463.7 277 491 294C518.3 311 545.7 363 573 389C600.3 415 627.7 415 654.8 394C682 373 709 331 736.2 318C763.3 305 790.7 321 818 332C845.3 343 872.7 349 886.3 352L900 355L900 107L886.3 123C872.7 139 845.3 171 818 181C790.7 191 763.3 179 736.2 175C709 171 682 175 654.8 173C627.7 171 600.3 163 573 151C545.7 139 518.3 123 491 112C463.7 101 436.3 95 409 111C381.7 127 354.3 165 327 172C299.7 179 272.3 155 245.2 148C218 141 191 151 163.8 160C136.7 169 109.3 177 82 175C54.7 173 27.3 161 13.7 155L0 149Z" fill="#6600ff"></path><path d="M0 499L13.7 503C27.3 507 54.7 515 82 518C109.3 521 136.7 519 163.8 508C191 497 218 477 245.2 478C272.3 479 299.7 501 327 495C354.3 489 381.7 455 409 439C436.3 423 463.7 425 491 443C518.3 461 545.7 495 573 511C600.3 527 627.7 525 654.8 523C682 521 709 519 736.2 517C763.3 515 790.7 513 818 507C845.3 501 872.7 491 886.3 486L900 481L900 353L886.3 350C872.7 347 845.3 341 818 330C790.7 319 763.3 303 736.2 316C709 329 682 371 654.8 392C627.7 413 600.3 413 573 387C545.7 361 518.3 309 491 292C463.7 275 436.3 293 409 300C381.7 307 354.3 303 327 292C299.7 281 272.3 263 245.2 275C218 287 191 329 163.8 334C136.7 339 109.3 307 82 292C54.7 277 27.3 279 13.7 280L0 281Z" fill="#5802dc"></path><path d="M0 601L13.7 601C27.3 601 54.7 601 82 601C109.3 601 136.7 601 163.8 601C191 601 218 601 245.2 601C272.3 601 299.7 601 327 601C354.3 601 381.7 601 409 601C436.3 601 463.7 601 491 601C518.3 601 545.7 601 573 601C600.3 601 627.7 601 654.8 601C682 601 709 601 736.2 601C763.3 601 790.7 601 818 601C845.3 601 872.7 601 886.3 601L900 601L900 479L886.3 484C872.7 489 845.3 499 818 505C790.7 511 763.3 513 736.2 515C709 517 682 519 654.8 521C627.7 523 600.3 525 573 509C545.7 493 518.3 459 491 441C463.7 423 436.3 421 409 437C381.7 453 354.3 487 327 493C299.7 499 272.3 477 245.2 476C218 475 191 495 163.8 506C136.7 517 109.3 519 82 516C54.7 513 27.3 505 13.7 501L0 497Z" fill="#4b03ba"></path></svg>